<svg xmlns="http://www.w3.org/2000/svg" viewBox="0 0 33.669 33.615"><defs><style>.a{fill:#116fff;}</style></defs><g transform="translate(0 -0.4)"><path class="a" d="M32.063,15.6a1.577,1.577,0,0,0-1.606,1.606,13.6,13.6,0,1,1-13.6-13.649,14.4,14.4,0,0,1,10.17,4.55h-2.89a1.606,1.606,0,0,0,0,3.212h8.243v-8.3a1.606,1.606,0,1,0-3.212,0V5.86a16.74,16.74,0,1,0,4.5,11.348A1.577,1.577,0,0,0,32.063,15.6Z"/><path class="a" d="M68.07,31.361a1.577,1.577,0,0,0,1.606,1.606h8.35A15.458,15.458,0,0,0,63.948,23.6,15.2,15.2,0,1,0,79.2,38.8v-.375a1.606,1.606,0,0,0-1.552-1.178,1.577,1.577,0,0,0-1.606,1.606A13.623,13.623,0,1,1,62.4,25.206a14.4,14.4,0,0,1,10.17,4.55h-2.89A1.577,1.577,0,0,0,68.07,31.361Z" transform="translate(-45.535 -21.648)"/></g></svg>