<svg xmlns="http://www.w3.org/2000/svg" viewBox="0 0 40 40"><defs><style>.a{fill:none;}.b{fill:#94c1ff;}.c{fill:#004fac;}.d{fill:#116fff;}</style></defs><g transform="translate(-990 -282.5)"><g transform="translate(989.5 282.5)"><rect class="a" width="40" height="40" transform="translate(0.5)"/><g transform="translate(6 8.879)"><g transform="translate(0.468 5.17)"><path class="b" d="M33.257,82.372A1.871,1.871,0,0,0,31.386,80.5H9.871A1.871,1.871,0,0,0,8,82.372v1.4H33.257Zm0,0" transform="translate(-8 -80.5)"/><path class="b" d="M8,216.5v7.019a1.871,1.871,0,0,0,1.871,1.872H31.386a1.871,1.871,0,0,0,1.871-1.872V216.5Zm0,0" transform="translate(-8 -208.545)"/><path class="b" d="M8,136.5H33.257v4.679H8Zm0,0" transform="translate(-8 -133.224)"/></g><path class="c" d="M26.661.5H5.145A2.341,2.341,0,0,0,2.806,2.839V4.71H2.339A2.341,2.341,0,0,0,0,7.048v13.1a2.341,2.341,0,0,0,2.339,2.339H23.855a2.341,2.341,0,0,0,2.339-2.339V18.274h.468A2.341,2.341,0,0,0,29,15.935V2.839A2.341,2.341,0,0,0,26.661.5ZM2.339,5.645H23.855a1.4,1.4,0,0,1,1.4,1.4v1.4H.935v-1.4A1.4,1.4,0,0,1,2.339,5.645Zm22.919,14.5a1.4,1.4,0,0,1-1.4,1.4H2.339a1.4,1.4,0,0,1-1.4-1.4V13.129H25.258Zm2.806-4.21a1.4,1.4,0,0,1-1.4,1.4h-.468V7.048A2.341,2.341,0,0,0,23.855,4.71H3.742V2.839a1.4,1.4,0,0,1,1.4-1.4H26.661a1.4,1.4,0,0,1,1.4,1.4Zm0,0"/><path class="d" d="M26.661.5H5.145A2.341,2.341,0,0,0,2.806,2.839V4.71H2.339A2.341,2.341,0,0,0,0,7.048v13.1a2.341,2.341,0,0,0,2.339,2.339H23.855a2.341,2.341,0,0,0,2.339-2.339V18.274h.468A2.341,2.341,0,0,0,29,15.935V2.839A2.341,2.341,0,0,0,26.661.5ZM2.339,5.645H23.855a1.4,1.4,0,0,1,1.4,1.4v1.4H.935v-1.4A1.4,1.4,0,0,1,2.339,5.645Zm22.919,14.5a1.4,1.4,0,0,1-1.4,1.4H2.339a1.4,1.4,0,0,1-1.4-1.4V13.129H25.258Zm2.806-4.21a1.4,1.4,0,0,1-1.4,1.4h-.468V7.048A2.341,2.341,0,0,0,23.855,4.71H3.742V2.839a1.4,1.4,0,0,1,1.4-1.4H26.661a1.4,1.4,0,0,1,1.4,1.4Zm0,0"/></g></g></g></svg>