<svg xmlns="http://www.w3.org/2000/svg" xmlns:xlink="http://www.w3.org/1999/xlink" viewBox="0 0 40 40"><defs><style>.a{fill:none;}.b{fill:url(#a);}</style><linearGradient id="a" x1="0.042" y1="0.031" x2="0.976" y2="0.966" gradientUnits="objectBoundingBox"><stop offset="0" stop-color="#50dd51"/><stop offset="1" stop-color="#18ce9b"/></linearGradient></defs><g transform="translate(-1144 -349)"><rect class="a" width="40" height="40" transform="translate(1144 349)"/><path class="b" d="M4.356,8.469A4.208,4.208,0,0,1,.121,4.235,4.208,4.208,0,0,1,4.356,0,4.208,4.208,0,0,1,8.59,4.235,4.287,4.287,0,0,1,4.356,8.469Zm4.114,8.106a4.287,4.287,0,0,0-4.235-4.235,4.235,4.235,0,0,0,0,8.469A4.135,4.135,0,0,0,8.469,16.575Zm0,12.341a4.287,4.287,0,0,0-4.235-4.235,4.235,4.235,0,0,0,0,8.469A4.208,4.208,0,0,0,8.469,28.916ZM20.931,16.575A4.235,4.235,0,1,0,16.7,20.81,4.208,4.208,0,0,0,20.931,16.575Zm0,12.341A4.235,4.235,0,1,0,16.7,33.15,4.208,4.208,0,0,0,20.931,28.916ZM33.271,16.575a4.235,4.235,0,1,0-4.235,4.235A4.208,4.208,0,0,0,33.271,16.575Zm0,12.341a4.235,4.235,0,1,0-4.235,4.235A4.208,4.208,0,0,0,33.271,28.916ZM16.7,0a4.287,4.287,0,0,0-4.235,4.235,4.235,4.235,0,1,0,8.469,0A4.287,4.287,0,0,0,16.7,0ZM29.037,0A4.287,4.287,0,0,0,24.8,4.235a4.135,4.135,0,0,0,4.235,4.235,4.208,4.208,0,0,0,4.235-4.235A4.287,4.287,0,0,0,29.037,0Z" transform="translate(1147 352)"/></g></svg>